<?xml version="1.0" encoding="UTF-8"?>
<svg xmlns="http://www.w3.org/2000/svg" version="1.1" viewBox="0 0 959.3 276.2">
  
  <g>
    <g id="Logo">
      <g>
        <path id="Icon" fill="#E03D22" d="M239.5,175.9c-5.2,12.2-13.5,23-24,31.3-18.3,14.5-41.3,20.4-64.1,16.5-5.5-.9-8.6-2.2-11.5-3-3.1-.9-3.3-3.4.4-2.4,5.1,1.5,10.3,2.2,14.8,2.2,16.1,0,30.3-4.6,43.8-14.1,12.5-8.9,21.9-20.9,27.5-34.8l-10.3-3.4c-4.8,11.7-12.9,21.9-23.5,29.4-14.8,10.5-33.2,14.8-51.1,11.7-4.7-.8-9.4-2.2-11.5-3-2.7-1-2.3-3,.2-2.6,2.6.5,6.6,1.4,10.2,1.4,26.9,0,51.1-16.9,60.4-42l-10.3-3.4c-9,23.5-33.5,38.2-59.2,33.8-10-1.7-21.5-7.8-24.6-11.3-1.3-1.4-.7-2.9,2.1-1.6,2.7,1.3,7.9,3.9,13.9,4.9,2.6.5,5.3.7,8,.7,9.6,0,19-3,27-8.7,8.1-5.8,14.1-13.8,17.2-23l-9.5-3.1c-5.8,16.7-23,27.3-41,24.3-20-3.4-33.6-22.5-30.2-42.5,1.6-9.7,7-18.2,15-23.9,6.3-4.5,13.7-6.8,21.3-6.8s4.2.2,6.2.5c13.2,2.3,23.6,11.3,28.1,22.9l9.3-3.7c-5.8-14.8-19-26.3-35.8-29.1-9.7-1.7-17.6.4-26.1,3.9-1.4.6-2.4-1.3-.6-2.5,8.9-5.9,18-7.9,28.5-7.9s6.1.3,9.1.8c17.6,3,31.7,14.2,39.1,29.1l10-4c-8.8-18.1-25.9-31.8-47.3-35.4-1-.2-2.3-.4-3.2-.5-2.2-.2-2.3-2.1-.1-2.4,1.5-.2,3.7,0,5.3,0,3.8.2,7.7.3,11.5,1,17.9,3,33.5,12.8,43.9,27.6,1,1.5,2,2.9,2.9,4.4l10.1-4c-1.3-2.3-2.7-4.5-4.2-6.6-12.1-17.1-27.4-27.7-48.1-31.2-2-.3-4-.6-6-.7-2.8-.1-2.8-2.3.3-2.3,1.8,0,3.6,0,5.7,0,2.5.1,4.6.3,9.2,1,21.4,3.6,40,15.4,52.5,33,.5.8,1.1,1.5,1.5,2.3l28-11.1C243.6,44.3,204.7,10.4,155.2,2,80.1-10.8,8.7,39.9-4.1,115c-6.2,36.4,2.2,73,23.5,103,21.3,30.1,53.1,50.1,89.5,56.3,7.8,1.3,15.6,2,23.2,2,33,0,64.2-11.9,88.5-32.3,18.8-15.7,33.5-36.4,41.9-60.6l-23-7.5ZM151.4,264.7c-13.3,1.8-26.8,1.3-40.8-1-33.5-5.7-62.8-24.1-82.5-51.9C8.5,184,.8,150.3,6.5,116.8,17.1,54.7,71.1,10.8,132,10.8s14.2.6,21.4,1.8c13.7,2.3,26.9,6.4,38.5,12.7,2.1,1.1,1.6,3.7-1,2.8-8.8-3.3-17.8-7.1-27.3-8.7-32.3-5.5-64.8,1.6-91.6,20.6-26.7,19-44.5,47.2-50,79.5-5.5,32.3,1.9,64.8,20.9,91.6,18.9,26.7,47.2,44.5,79.5,50,7,1.2,13.9,1.8,20.8,1.8s5.8-.4,8.5-.6c1.8-.2,1.6,2.3-.4,2.6ZM162,251c-12.3,2.3-25.1,1.5-37.7-.6-29.5-5-55.2-21.2-72.5-45.6-17.3-24.4-24.1-54.1-19-83.5,5-29.5,21.2-55.2,45.6-72.5,19.1-13.6,41.5-20.7,64.5-20.7s12.7.5,19,1.6c12.4,2.1,22.3,5.2,33.1,10.9,2.5,1.3,1.2,3.4-.5,2.7-7.5-3.1-14-5.7-22.4-7.2-28.2-4.8-56.7,1.7-80.1,18.2-23.4,16.6-38.9,41.3-43.7,69.5-4.8,28.3,1.7,56.7,18.2,80.1,16.6,23.4,41.3,38.9,69.5,43.7,6.1,1,11.1,1,17.1,1s6.4-.2,8.9-.5c1.8-.3,2.3,2.4,0,2.9ZM170.3,238.2c-5.7.9-21.3.7-32.4-1.2-25.4-4.3-47.6-18.3-62.5-39.3-14.9-21-20.7-46.6-16.4-72,4.3-25.4,18.3-47.6,39.3-62.5,16.5-11.7,35.8-17.8,55.6-17.8s10.9.5,16.4,1.4c8.2,1.4,16,3.1,23.2,6.6,1.8.9,1.1,3.1-1.1,2.3-3.5-1.3-7.4-2.1-11.1-2.8-16.4-2.8-32-1.4-47.1,4.3,0,0-.1,0-.2,0-7.4,2.8-14.4,6.5-21,11.2-20.2,14.3-33.6,35.6-37.7,60-4.1,24.4,1.5,48.9,15.7,69.1,3.8,5.3,8,10.2,12.7,14.5,13.1,12.1,29.3,20.2,47.3,23.2,5.2.9,10.3.9,15.5.9s2.8-.2,4.1-.3c2.1-.2,1.9,2.1-.2,2.5Z"></path>
        <g id="Wordmark">
          <path d="M316.6,175.8c-7.2-4.6-12.8-10.8-16.6-18.5-3.9-7.7-5.8-16.2-5.8-25.3s1.9-17.5,5.8-25.3c3.8-7.7,9.4-13.9,16.6-18.5,7.2-4.6,15.7-6.9,25.3-6.9s15.2,1.5,21.4,4.5c6.2,3,11.2,7.1,15.1,12.2,3.9,5.2,6.5,11.1,7.9,17.8h-19.8c-1.9-5.3-4.9-9.5-8.9-12.7-4-3.2-9.2-4.7-15.6-4.7s-10.8,1.5-15.1,4.6c-4.3,3.1-7.6,7.2-9.9,12.3-2.3,5.1-3.4,10.7-3.4,16.6s1.1,11.5,3.4,16.6c2.3,5.1,5.6,9.3,9.9,12.3,4.3,3.1,9.3,4.6,15.1,4.6s11.6-1.6,15.6-4.7c4-3.2,7-7.4,8.9-12.7h19.8c-1.4,6.7-4,12.6-7.9,17.8-3.9,5.2-8.9,9.3-15.1,12.2-6.2,3-13.3,4.5-21.4,4.5s-18.1-2.3-25.3-6.9Z"></path>
          <path d="M418.7,175.8c-7.4-4.6-13.1-10.8-17.2-18.6-4.1-7.8-6.1-16.2-6.1-25.2s2-17.4,6.1-25.2c4.1-7.8,9.8-14,17.2-18.6,7.4-4.6,15.8-6.9,25.3-6.9s17.9,2.3,25.3,6.9c7.4,4.6,13.1,10.8,17.2,18.6,4.1,7.8,6.1,16.2,6.1,25.2s-2,17.4-6.1,25.2c-4.1,7.8-9.8,14-17.2,18.6-7.4,4.6-15.8,6.9-25.3,6.9s-17.9-2.3-25.3-6.9ZM459.5,160.8c4.4-3.2,7.8-7.4,10.1-12.5,2.3-5.1,3.5-10.6,3.5-16.2s-1.2-11.1-3.5-16.2c-2.3-5.1-5.7-9.3-10.1-12.5-4.4-3.2-9.6-4.8-15.5-4.8s-11.1,1.6-15.5,4.9c-4.4,3.2-7.8,7.4-10.1,12.5-2.3,5.1-3.5,10.5-3.5,16.1s1.2,11,3.5,16.1c2.3,5.1,5.7,9.3,10.1,12.5,4.4,3.2,9.6,4.9,15.5,4.9s11.1-1.6,15.5-4.8Z"></path>
          <path d="M523.4,131l-31.7-47.6h22.1l21.2,32.3,21-32.3h22.3l-31.7,47.6,33.3,49.8h-22.5l-22.3-34.4-22.4,34.4h-22.4l33.3-49.8Z"></path>
          <path d="M602.4,83.4l14.5,67.1,19.8-67.1h19.2l19.8,67.1,14.5-67.1h20.9l-25.2,97.4h-18.8l-20.7-74-20.7,74h-18.8l-25.2-97.4h20.9Z"></path>
          <path d="M719.9,83.4h71.8v17h-52.3v22.3h50.4v17h-50.4v24.2h53.4v17h-72.9v-97.4Z"></path>
          <path d="M806.6,83.4h19.5v80.3h48v17.1h-67.5v-97.4Z"></path>
          <path d="M885.7,83.4h19.5v80.3h48v17.1h-67.5v-97.4Z"></path>
        </g>
      </g>
    </g>
  </g>
</svg>